<mxfile host="app.diagrams.net" modified="2023-08-30T15:33:01.268Z" agent="Mozilla/5.0 (Windows NT 10.0; Win64; x64) AppleWebKit/537.36 (KHTML, like Gecko) Chrome/116.0.0.0 Safari/537.36" etag="hnEWdIl2CjK3woXQjRQb" version="21.2.4" type="device">
  <diagram id="C5RBs43oDa-KdzZeNtuy" name="Page-1">
    <mxGraphModel dx="1500" dy="1978" grid="1" gridSize="10" guides="1" tooltips="1" connect="1" arrows="1" fold="1" page="1" pageScale="1" pageWidth="827" pageHeight="1169" math="0" shadow="0">
      <root>
        <mxCell id="WIyWlLk6GJQsqaUBKTNV-0" />
        <mxCell id="WIyWlLk6GJQsqaUBKTNV-1" parent="WIyWlLk6GJQsqaUBKTNV-0" />
        <mxCell id="eL0ILeFF7xP9Uzbyy_IR-13" style="edgeStyle=orthogonalEdgeStyle;rounded=0;orthogonalLoop=1;jettySize=auto;html=1;exitX=0.5;exitY=1;exitDx=0;exitDy=0;entryX=0.5;entryY=0;entryDx=0;entryDy=0;" edge="1" parent="WIyWlLk6GJQsqaUBKTNV-1" source="eL0ILeFF7xP9Uzbyy_IR-5" target="eL0ILeFF7xP9Uzbyy_IR-25">
          <mxGeometry relative="1" as="geometry">
            <mxPoint x="180" y="200" as="targetPoint" />
          </mxGeometry>
        </mxCell>
        <mxCell id="eL0ILeFF7xP9Uzbyy_IR-5" value="altinn.&lt;br&gt;notifications.&lt;br&gt;orders.&lt;br&gt;pastdue" style="rounded=1;whiteSpace=wrap;html=1;" vertex="1" parent="WIyWlLk6GJQsqaUBKTNV-1">
          <mxGeometry x="116.66" y="110" width="120" height="60" as="geometry" />
        </mxCell>
        <mxCell id="eL0ILeFF7xP9Uzbyy_IR-12" style="edgeStyle=orthogonalEdgeStyle;rounded=0;orthogonalLoop=1;jettySize=auto;html=1;entryX=0.5;entryY=0;entryDx=0;entryDy=0;" edge="1" parent="WIyWlLk6GJQsqaUBKTNV-1" source="eL0ILeFF7xP9Uzbyy_IR-29" target="eL0ILeFF7xP9Uzbyy_IR-5">
          <mxGeometry relative="1" as="geometry">
            <mxPoint x="180" y="90" as="sourcePoint" />
          </mxGeometry>
        </mxCell>
        <mxCell id="eL0ILeFF7xP9Uzbyy_IR-23" style="edgeStyle=orthogonalEdgeStyle;rounded=0;orthogonalLoop=1;jettySize=auto;html=1;entryX=0.5;entryY=0;entryDx=0;entryDy=0;" edge="1" parent="WIyWlLk6GJQsqaUBKTNV-1" source="eL0ILeFF7xP9Uzbyy_IR-17" target="eL0ILeFF7xP9Uzbyy_IR-19">
          <mxGeometry relative="1" as="geometry" />
        </mxCell>
        <mxCell id="eL0ILeFF7xP9Uzbyy_IR-27" value="NO" style="edgeStyle=orthogonalEdgeStyle;rounded=0;orthogonalLoop=1;jettySize=auto;html=1;entryX=0;entryY=0.5;entryDx=0;entryDy=0;" edge="1" parent="WIyWlLk6GJQsqaUBKTNV-1" source="eL0ILeFF7xP9Uzbyy_IR-17" target="eL0ILeFF7xP9Uzbyy_IR-30">
          <mxGeometry x="0.1" y="10" relative="1" as="geometry">
            <mxPoint x="310" y="340" as="targetPoint" />
            <mxPoint as="offset" />
          </mxGeometry>
        </mxCell>
        <mxCell id="eL0ILeFF7xP9Uzbyy_IR-17" value="&lt;font style=&quot;font-size: 9px;&quot;&gt;Generation successful?&lt;/font&gt;" style="html=1;whiteSpace=wrap;aspect=fixed;shape=isoRectangle;" vertex="1" parent="WIyWlLk6GJQsqaUBKTNV-1">
          <mxGeometry x="110" y="300" width="133.33" height="80" as="geometry" />
        </mxCell>
        <mxCell id="eL0ILeFF7xP9Uzbyy_IR-24" style="edgeStyle=orthogonalEdgeStyle;rounded=0;orthogonalLoop=1;jettySize=auto;html=1;exitX=0.5;exitY=1;exitDx=0;exitDy=0;entryX=0.5;entryY=0;entryDx=0;entryDy=0;entryPerimeter=0;" edge="1" parent="WIyWlLk6GJQsqaUBKTNV-1" source="eL0ILeFF7xP9Uzbyy_IR-19" target="eL0ILeFF7xP9Uzbyy_IR-21">
          <mxGeometry relative="1" as="geometry" />
        </mxCell>
        <mxCell id="eL0ILeFF7xP9Uzbyy_IR-19" value="Order processing status set to completed" style="rounded=0;whiteSpace=wrap;html=1;fillColor=#dae8fc;strokeColor=#6c8ebf;" vertex="1" parent="WIyWlLk6GJQsqaUBKTNV-1">
          <mxGeometry x="116.66" y="430" width="120" height="60" as="geometry" />
        </mxCell>
        <mxCell id="eL0ILeFF7xP9Uzbyy_IR-21" value="Order processing status: completed" style="points=[[0.145,0.145,0],[0.5,0,0],[0.855,0.145,0],[1,0.5,0],[0.855,0.855,0],[0.5,1,0],[0.145,0.855,0],[0,0.5,0]];shape=mxgraph.bpmn.event;html=1;verticalLabelPosition=bottom;labelBackgroundColor=#ffffff;verticalAlign=top;align=center;perimeter=ellipsePerimeter;outlineConnect=0;aspect=fixed;outline=end;symbol=cancel;" vertex="1" parent="WIyWlLk6GJQsqaUBKTNV-1">
          <mxGeometry x="151.66" y="520" width="50" height="50" as="geometry" />
        </mxCell>
        <mxCell id="eL0ILeFF7xP9Uzbyy_IR-26" style="edgeStyle=orthogonalEdgeStyle;rounded=0;orthogonalLoop=1;jettySize=auto;html=1;exitX=0.5;exitY=1;exitDx=0;exitDy=0;entryX=0.504;entryY=0.065;entryDx=0;entryDy=0;entryPerimeter=0;" edge="1" parent="WIyWlLk6GJQsqaUBKTNV-1" source="eL0ILeFF7xP9Uzbyy_IR-25" target="eL0ILeFF7xP9Uzbyy_IR-17">
          <mxGeometry relative="1" as="geometry" />
        </mxCell>
        <mxCell id="eL0ILeFF7xP9Uzbyy_IR-25" value="&lt;span style=&quot;border-color: var(--border-color); font-size: 11px; background-color: rgb(255, 255, 255);&quot;&gt;Generate an email&lt;/span&gt;&lt;br style=&quot;border-color: var(--border-color); font-size: 11px;&quot;&gt;&lt;span style=&quot;border-color: var(--border-color); font-size: 11px; background-color: rgb(255, 255, 255);&quot;&gt;notification for each recipient and persist in database&lt;/span&gt;" style="rounded=0;whiteSpace=wrap;html=1;fillColor=#dae8fc;strokeColor=#6c8ebf;" vertex="1" parent="WIyWlLk6GJQsqaUBKTNV-1">
          <mxGeometry x="96.66" y="210" width="160" height="60" as="geometry" />
        </mxCell>
        <mxCell id="eL0ILeFF7xP9Uzbyy_IR-28" value="YES" style="text;html=1;align=center;verticalAlign=middle;resizable=0;points=[];autosize=1;strokeColor=none;fillColor=none;" vertex="1" parent="WIyWlLk6GJQsqaUBKTNV-1">
          <mxGeometry x="140" y="388" width="50" height="30" as="geometry" />
        </mxCell>
        <mxCell id="eL0ILeFF7xP9Uzbyy_IR-29" value="Order processing status set to processing in DB &amp;amp; order published to topic" style="rounded=0;whiteSpace=wrap;html=1;fillColor=#dae8fc;strokeColor=#6c8ebf;" vertex="1" parent="WIyWlLk6GJQsqaUBKTNV-1">
          <mxGeometry x="96.66" y="10" width="160" height="60" as="geometry" />
        </mxCell>
        <mxCell id="eL0ILeFF7xP9Uzbyy_IR-33" style="edgeStyle=orthogonalEdgeStyle;rounded=0;orthogonalLoop=1;jettySize=auto;html=1;entryX=0.5;entryY=0;entryDx=0;entryDy=0;" edge="1" parent="WIyWlLk6GJQsqaUBKTNV-1" source="eL0ILeFF7xP9Uzbyy_IR-30" target="eL0ILeFF7xP9Uzbyy_IR-32">
          <mxGeometry relative="1" as="geometry" />
        </mxCell>
        <mxCell id="eL0ILeFF7xP9Uzbyy_IR-30" value="altinn.&lt;br&gt;notifications.&lt;br&gt;orders.&lt;br&gt;pastdue.&lt;br&gt;retry" style="rounded=1;whiteSpace=wrap;html=1;" vertex="1" parent="WIyWlLk6GJQsqaUBKTNV-1">
          <mxGeometry x="320" y="300" width="106" height="80" as="geometry" />
        </mxCell>
        <mxCell id="eL0ILeFF7xP9Uzbyy_IR-35" style="edgeStyle=orthogonalEdgeStyle;rounded=0;orthogonalLoop=1;jettySize=auto;html=1;exitX=0.5;exitY=1;exitDx=0;exitDy=0;entryX=0.467;entryY=0.035;entryDx=0;entryDy=0;entryPerimeter=0;" edge="1" parent="WIyWlLk6GJQsqaUBKTNV-1" source="eL0ILeFF7xP9Uzbyy_IR-32" target="eL0ILeFF7xP9Uzbyy_IR-34">
          <mxGeometry relative="1" as="geometry" />
        </mxCell>
        <mxCell id="eL0ILeFF7xP9Uzbyy_IR-32" value="&lt;span style=&quot;border-color: var(--border-color); font-size: 11px; background-color: rgb(255, 255, 255);&quot;&gt;Generate an email&lt;/span&gt;&lt;br style=&quot;border-color: var(--border-color); font-size: 11px;&quot;&gt;&lt;span style=&quot;border-color: var(--border-color); font-size: 11px; background-color: rgb(255, 255, 255);&quot;&gt;notification for each recipient not yet persisted in database&lt;/span&gt;" style="rounded=0;whiteSpace=wrap;html=1;fillColor=#dae8fc;strokeColor=#6c8ebf;" vertex="1" parent="WIyWlLk6GJQsqaUBKTNV-1">
          <mxGeometry x="293" y="418" width="160" height="60" as="geometry" />
        </mxCell>
        <mxCell id="eL0ILeFF7xP9Uzbyy_IR-39" value="YES" style="edgeStyle=orthogonalEdgeStyle;rounded=0;orthogonalLoop=1;jettySize=auto;html=1;entryX=0.5;entryY=0;entryDx=0;entryDy=0;" edge="1" parent="WIyWlLk6GJQsqaUBKTNV-1" source="eL0ILeFF7xP9Uzbyy_IR-34" target="eL0ILeFF7xP9Uzbyy_IR-36">
          <mxGeometry x="0.2008" y="-17" relative="1" as="geometry">
            <mxPoint as="offset" />
          </mxGeometry>
        </mxCell>
        <mxCell id="eL0ILeFF7xP9Uzbyy_IR-42" style="edgeStyle=orthogonalEdgeStyle;rounded=0;orthogonalLoop=1;jettySize=auto;html=1;entryX=0;entryY=0.5;entryDx=0;entryDy=0;entryPerimeter=0;" edge="1" parent="WIyWlLk6GJQsqaUBKTNV-1" source="eL0ILeFF7xP9Uzbyy_IR-34" target="eL0ILeFF7xP9Uzbyy_IR-41">
          <mxGeometry relative="1" as="geometry" />
        </mxCell>
        <mxCell id="eL0ILeFF7xP9Uzbyy_IR-43" value="NO" style="edgeLabel;html=1;align=center;verticalAlign=middle;resizable=0;points=[];" vertex="1" connectable="0" parent="eL0ILeFF7xP9Uzbyy_IR-42">
          <mxGeometry x="0.2174" y="4" relative="1" as="geometry">
            <mxPoint x="-10" y="-11" as="offset" />
          </mxGeometry>
        </mxCell>
        <mxCell id="eL0ILeFF7xP9Uzbyy_IR-34" value="&lt;font style=&quot;font-size: 10px;&quot;&gt;Generation successful?&lt;/font&gt;" style="html=1;whiteSpace=wrap;aspect=fixed;shape=isoRectangle;" vertex="1" parent="WIyWlLk6GJQsqaUBKTNV-1">
          <mxGeometry x="310" y="520" width="133.33" height="80" as="geometry" />
        </mxCell>
        <mxCell id="eL0ILeFF7xP9Uzbyy_IR-40" style="edgeStyle=orthogonalEdgeStyle;rounded=0;orthogonalLoop=1;jettySize=auto;html=1;entryX=0.5;entryY=0;entryDx=0;entryDy=0;entryPerimeter=0;" edge="1" parent="WIyWlLk6GJQsqaUBKTNV-1" source="eL0ILeFF7xP9Uzbyy_IR-36" target="eL0ILeFF7xP9Uzbyy_IR-37">
          <mxGeometry relative="1" as="geometry" />
        </mxCell>
        <mxCell id="eL0ILeFF7xP9Uzbyy_IR-36" value="Order processing status set to completed" style="rounded=0;whiteSpace=wrap;html=1;fillColor=#dae8fc;strokeColor=#6c8ebf;" vertex="1" parent="WIyWlLk6GJQsqaUBKTNV-1">
          <mxGeometry x="316.66999999999996" y="650" width="120" height="60" as="geometry" />
        </mxCell>
        <mxCell id="eL0ILeFF7xP9Uzbyy_IR-37" value="Order processing status: completed" style="points=[[0.145,0.145,0],[0.5,0,0],[0.855,0.145,0],[1,0.5,0],[0.855,0.855,0],[0.5,1,0],[0.145,0.855,0],[0,0.5,0]];shape=mxgraph.bpmn.event;html=1;verticalLabelPosition=bottom;labelBackgroundColor=#ffffff;verticalAlign=top;align=center;perimeter=ellipsePerimeter;outlineConnect=0;aspect=fixed;outline=end;symbol=cancel;" vertex="1" parent="WIyWlLk6GJQsqaUBKTNV-1">
          <mxGeometry x="351.66999999999996" y="750" width="50" height="50" as="geometry" />
        </mxCell>
        <mxCell id="eL0ILeFF7xP9Uzbyy_IR-41" value="Order processing status: processing" style="points=[[0.145,0.145,0],[0.5,0,0],[0.855,0.145,0],[1,0.5,0],[0.855,0.855,0],[0.5,1,0],[0.145,0.855,0],[0,0.5,0]];shape=mxgraph.bpmn.event;html=1;verticalLabelPosition=bottom;labelBackgroundColor=#ffffff;verticalAlign=top;align=center;perimeter=ellipsePerimeter;outlineConnect=0;aspect=fixed;outline=end;symbol=cancel;" vertex="1" parent="WIyWlLk6GJQsqaUBKTNV-1">
          <mxGeometry x="570" y="535" width="50" height="50" as="geometry" />
        </mxCell>
        <mxCell id="eL0ILeFF7xP9Uzbyy_IR-47" value="Altinn.Notifications" style="rounded=0;whiteSpace=wrap;html=1;fillColor=#dae8fc;strokeColor=#6c8ebf;" vertex="1" parent="WIyWlLk6GJQsqaUBKTNV-1">
          <mxGeometry x="31.659999999999997" y="770" width="120" height="60" as="geometry" />
        </mxCell>
        <mxCell id="eL0ILeFF7xP9Uzbyy_IR-48" value="&lt;font style=&quot;font-size: 10px;&quot;&gt;Altinn.Notifications.Email&lt;/font&gt;" style="rounded=0;whiteSpace=wrap;html=1;fillColor=#d5e8d4;strokeColor=#82b366;" vertex="1" parent="WIyWlLk6GJQsqaUBKTNV-1">
          <mxGeometry x="31.659999999999997" y="850" width="120" height="60" as="geometry" />
        </mxCell>
        <mxCell id="eL0ILeFF7xP9Uzbyy_IR-53" value="&#xa;&lt;span style=&quot;color: rgb(0, 0, 0); font-family: Helvetica; font-size: 12px; font-style: normal; font-variant-ligatures: normal; font-variant-caps: normal; font-weight: 400; letter-spacing: normal; orphans: 2; text-align: center; text-indent: 0px; text-transform: none; widows: 2; word-spacing: 0px; -webkit-text-stroke-width: 0px; background-color: rgb(255, 255, 255); text-decoration-thickness: initial; text-decoration-style: initial; text-decoration-color: initial; float: none; display: inline !important;&quot;&gt;Time triggered service&lt;/span&gt;&lt;br style=&quot;border-color: var(--border-color); color: rgb(0, 0, 0); font-family: Helvetica; font-size: 12px; font-style: normal; font-variant-ligatures: normal; font-variant-caps: normal; font-weight: 400; letter-spacing: normal; orphans: 2; text-align: center; text-indent: 0px; text-transform: none; widows: 2; word-spacing: 0px; -webkit-text-stroke-width: 0px; text-decoration-thickness: initial; text-decoration-style: initial; text-decoration-color: initial;&quot;&gt;&lt;span style=&quot;color: rgb(0, 0, 0); font-family: Helvetica; font-size: 12px; font-style: normal; font-variant-ligatures: normal; font-variant-caps: normal; font-weight: 400; letter-spacing: normal; orphans: 2; text-align: center; text-indent: 0px; text-transform: none; widows: 2; word-spacing: 0px; -webkit-text-stroke-width: 0px; background-color: rgb(255, 255, 255); text-decoration-thickness: initial; text-decoration-style: initial; text-decoration-color: initial; float: none; display: inline !important;&quot;&gt;triggers retrieval of past due orders from db&lt;/span&gt;&#xa;&#xa;" style="edgeStyle=orthogonalEdgeStyle;rounded=0;orthogonalLoop=1;jettySize=auto;html=1;entryX=0.5;entryY=0;entryDx=0;entryDy=0;" edge="1" parent="WIyWlLk6GJQsqaUBKTNV-1" source="eL0ILeFF7xP9Uzbyy_IR-52" target="eL0ILeFF7xP9Uzbyy_IR-29">
          <mxGeometry x="-1" y="-70" relative="1" as="geometry">
            <mxPoint x="70" y="-70" as="offset" />
          </mxGeometry>
        </mxCell>
        <mxCell id="eL0ILeFF7xP9Uzbyy_IR-52" value="" style="points=[[0.145,0.145,0],[0.5,0,0],[0.855,0.145,0],[1,0.5,0],[0.855,0.855,0],[0.5,1,0],[0.145,0.855,0],[0,0.5,0]];shape=mxgraph.bpmn.event;html=1;verticalLabelPosition=bottom;labelBackgroundColor=#ffffff;verticalAlign=top;align=center;perimeter=ellipsePerimeter;outlineConnect=0;aspect=fixed;outline=standard;symbol=timer;" vertex="1" parent="WIyWlLk6GJQsqaUBKTNV-1">
          <mxGeometry x="151.67" y="-120" width="50" height="50" as="geometry" />
        </mxCell>
        <mxCell id="eL0ILeFF7xP9Uzbyy_IR-56" style="edgeStyle=orthogonalEdgeStyle;rounded=0;orthogonalLoop=1;jettySize=auto;html=1;" edge="1" parent="WIyWlLk6GJQsqaUBKTNV-1" source="eL0ILeFF7xP9Uzbyy_IR-54" target="eL0ILeFF7xP9Uzbyy_IR-55">
          <mxGeometry relative="1" as="geometry" />
        </mxCell>
        <mxCell id="eL0ILeFF7xP9Uzbyy_IR-57" value="" style="edgeStyle=orthogonalEdgeStyle;rounded=0;orthogonalLoop=1;jettySize=auto;html=1;" edge="1" parent="WIyWlLk6GJQsqaUBKTNV-1" source="eL0ILeFF7xP9Uzbyy_IR-54" target="eL0ILeFF7xP9Uzbyy_IR-55">
          <mxGeometry relative="1" as="geometry" />
        </mxCell>
        <mxCell id="eL0ILeFF7xP9Uzbyy_IR-54" value="" style="points=[[0.145,0.145,0],[0.5,0,0],[0.855,0.145,0],[1,0.5,0],[0.855,0.855,0],[0.5,1,0],[0.145,0.855,0],[0,0.5,0]];shape=mxgraph.bpmn.event;html=1;verticalLabelPosition=bottom;labelBackgroundColor=#ffffff;verticalAlign=top;align=center;perimeter=ellipsePerimeter;outlineConnect=0;aspect=fixed;outline=standard;symbol=timer;" vertex="1" parent="WIyWlLk6GJQsqaUBKTNV-1">
          <mxGeometry x="880" y="-100" width="50" height="50" as="geometry" />
        </mxCell>
        <mxCell id="eL0ILeFF7xP9Uzbyy_IR-60" style="edgeStyle=orthogonalEdgeStyle;rounded=0;orthogonalLoop=1;jettySize=auto;html=1;entryX=0.5;entryY=0;entryDx=0;entryDy=0;" edge="1" parent="WIyWlLk6GJQsqaUBKTNV-1" source="eL0ILeFF7xP9Uzbyy_IR-55" target="eL0ILeFF7xP9Uzbyy_IR-59">
          <mxGeometry relative="1" as="geometry" />
        </mxCell>
        <mxCell id="eL0ILeFF7xP9Uzbyy_IR-55" value="Sending status set to: sending in DB &amp;amp; email published to topic" style="rounded=0;whiteSpace=wrap;html=1;fillColor=#dae8fc;strokeColor=#6c8ebf;" vertex="1" parent="WIyWlLk6GJQsqaUBKTNV-1">
          <mxGeometry x="825" y="20" width="160" height="60" as="geometry" />
        </mxCell>
        <mxCell id="eL0ILeFF7xP9Uzbyy_IR-58" value="Time triggered service &lt;br&gt;triggers retrieval of past due emails from db" style="text;html=1;align=center;verticalAlign=middle;resizable=0;points=[];autosize=1;strokeColor=none;fillColor=none;" vertex="1" parent="WIyWlLk6GJQsqaUBKTNV-1">
          <mxGeometry x="780" y="-150" width="250" height="40" as="geometry" />
        </mxCell>
        <mxCell id="eL0ILeFF7xP9Uzbyy_IR-62" style="edgeStyle=orthogonalEdgeStyle;rounded=0;orthogonalLoop=1;jettySize=auto;html=1;exitX=0.5;exitY=1;exitDx=0;exitDy=0;" edge="1" parent="WIyWlLk6GJQsqaUBKTNV-1" source="eL0ILeFF7xP9Uzbyy_IR-59" target="eL0ILeFF7xP9Uzbyy_IR-61">
          <mxGeometry relative="1" as="geometry" />
        </mxCell>
        <mxCell id="eL0ILeFF7xP9Uzbyy_IR-59" value="altinn.&lt;br&gt;notification.&lt;br&gt;email.&lt;br&gt;queue" style="rounded=1;whiteSpace=wrap;html=1;" vertex="1" parent="WIyWlLk6GJQsqaUBKTNV-1">
          <mxGeometry x="845" y="130" width="120" height="60" as="geometry" />
        </mxCell>
        <mxCell id="eL0ILeFF7xP9Uzbyy_IR-64" style="edgeStyle=orthogonalEdgeStyle;rounded=0;orthogonalLoop=1;jettySize=auto;html=1;entryX=0.495;entryY=0;entryDx=0;entryDy=0;entryPerimeter=0;" edge="1" parent="WIyWlLk6GJQsqaUBKTNV-1" source="eL0ILeFF7xP9Uzbyy_IR-61" target="eL0ILeFF7xP9Uzbyy_IR-63">
          <mxGeometry relative="1" as="geometry" />
        </mxCell>
        <mxCell id="eL0ILeFF7xP9Uzbyy_IR-61" value="&lt;font style=&quot;font-size: 10px;&quot;&gt;Send email through communication services&lt;/font&gt;" style="rounded=0;whiteSpace=wrap;html=1;fillColor=#d5e8d4;strokeColor=#82b366;" vertex="1" parent="WIyWlLk6GJQsqaUBKTNV-1">
          <mxGeometry x="845" y="250" width="120" height="60" as="geometry" />
        </mxCell>
        <mxCell id="eL0ILeFF7xP9Uzbyy_IR-66" value="YES" style="edgeStyle=orthogonalEdgeStyle;rounded=0;orthogonalLoop=1;jettySize=auto;html=1;entryX=0.5;entryY=0;entryDx=0;entryDy=0;" edge="1" parent="WIyWlLk6GJQsqaUBKTNV-1" source="eL0ILeFF7xP9Uzbyy_IR-63" target="eL0ILeFF7xP9Uzbyy_IR-67">
          <mxGeometry x="-0.1153" y="-21" relative="1" as="geometry">
            <mxPoint x="905.665" y="530" as="targetPoint" />
            <mxPoint as="offset" />
          </mxGeometry>
        </mxCell>
        <mxCell id="eL0ILeFF7xP9Uzbyy_IR-72" value="NO" style="edgeStyle=orthogonalEdgeStyle;rounded=0;orthogonalLoop=1;jettySize=auto;html=1;entryX=1;entryY=0.5;entryDx=0;entryDy=0;" edge="1" parent="WIyWlLk6GJQsqaUBKTNV-1" source="eL0ILeFF7xP9Uzbyy_IR-63" target="eL0ILeFF7xP9Uzbyy_IR-59">
          <mxGeometry x="-0.1622" y="-10" relative="1" as="geometry">
            <mxPoint x="1080" y="150" as="targetPoint" />
            <Array as="points">
              <mxPoint x="1081" y="400" />
              <mxPoint x="1081" y="160" />
            </Array>
            <mxPoint x="1" as="offset" />
          </mxGeometry>
        </mxCell>
        <mxCell id="eL0ILeFF7xP9Uzbyy_IR-63" value="&lt;font style=&quot;font-size: 10px;&quot;&gt;Operation accepted?&lt;/font&gt;" style="html=1;whiteSpace=wrap;aspect=fixed;shape=isoRectangle;" vertex="1" parent="WIyWlLk6GJQsqaUBKTNV-1">
          <mxGeometry x="839" y="360" width="133.33" height="80" as="geometry" />
        </mxCell>
        <mxCell id="eL0ILeFF7xP9Uzbyy_IR-69" style="edgeStyle=orthogonalEdgeStyle;rounded=0;orthogonalLoop=1;jettySize=auto;html=1;entryX=0.5;entryY=0;entryDx=0;entryDy=0;" edge="1" parent="WIyWlLk6GJQsqaUBKTNV-1" source="eL0ILeFF7xP9Uzbyy_IR-67" target="eL0ILeFF7xP9Uzbyy_IR-68">
          <mxGeometry relative="1" as="geometry" />
        </mxCell>
        <mxCell id="eL0ILeFF7xP9Uzbyy_IR-67" value="&lt;font style=&quot;font-size: 10px;&quot;&gt;Generate operation identifier &amp;amp; publish to topic&lt;/font&gt;" style="rounded=0;whiteSpace=wrap;html=1;fillColor=#d5e8d4;strokeColor=#82b366;" vertex="1" parent="WIyWlLk6GJQsqaUBKTNV-1">
          <mxGeometry x="845" y="530" width="120" height="60" as="geometry" />
        </mxCell>
        <mxCell id="eL0ILeFF7xP9Uzbyy_IR-75" style="edgeStyle=orthogonalEdgeStyle;rounded=0;orthogonalLoop=1;jettySize=auto;html=1;entryX=0.5;entryY=0;entryDx=0;entryDy=0;" edge="1" parent="WIyWlLk6GJQsqaUBKTNV-1" source="eL0ILeFF7xP9Uzbyy_IR-68" target="eL0ILeFF7xP9Uzbyy_IR-74">
          <mxGeometry relative="1" as="geometry" />
        </mxCell>
        <mxCell id="eL0ILeFF7xP9Uzbyy_IR-68" value="altinn.&lt;br&gt;notification.&lt;br&gt;email.&lt;br&gt;sending.&lt;br&gt;accepted" style="rounded=1;whiteSpace=wrap;html=1;" vertex="1" parent="WIyWlLk6GJQsqaUBKTNV-1">
          <mxGeometry x="845" y="650" width="120" height="90" as="geometry" />
        </mxCell>
        <mxCell id="eL0ILeFF7xP9Uzbyy_IR-78" style="edgeStyle=orthogonalEdgeStyle;rounded=0;orthogonalLoop=1;jettySize=auto;html=1;entryX=0.523;entryY=0.05;entryDx=0;entryDy=0;entryPerimeter=0;" edge="1" parent="WIyWlLk6GJQsqaUBKTNV-1" source="eL0ILeFF7xP9Uzbyy_IR-74" target="eL0ILeFF7xP9Uzbyy_IR-76">
          <mxGeometry relative="1" as="geometry" />
        </mxCell>
        <mxCell id="eL0ILeFF7xP9Uzbyy_IR-74" value="&lt;font style=&quot;font-size: 10px;&quot;&gt;Get operation update from communication services&lt;/font&gt;" style="rounded=0;whiteSpace=wrap;html=1;fillColor=#d5e8d4;strokeColor=#82b366;" vertex="1" parent="WIyWlLk6GJQsqaUBKTNV-1">
          <mxGeometry x="845" y="800" width="120" height="60" as="geometry" />
        </mxCell>
        <mxCell id="eL0ILeFF7xP9Uzbyy_IR-81" value="YES" style="edgeStyle=orthogonalEdgeStyle;rounded=0;orthogonalLoop=1;jettySize=auto;html=1;entryX=0;entryY=0.5;entryDx=0;entryDy=0;" edge="1" parent="WIyWlLk6GJQsqaUBKTNV-1" source="eL0ILeFF7xP9Uzbyy_IR-76" target="eL0ILeFF7xP9Uzbyy_IR-80">
          <mxGeometry relative="1" as="geometry" />
        </mxCell>
        <mxCell id="eL0ILeFF7xP9Uzbyy_IR-85" value="NO" style="edgeStyle=orthogonalEdgeStyle;rounded=0;orthogonalLoop=1;jettySize=auto;html=1;" edge="1" parent="WIyWlLk6GJQsqaUBKTNV-1" source="eL0ILeFF7xP9Uzbyy_IR-76" target="eL0ILeFF7xP9Uzbyy_IR-83">
          <mxGeometry x="0.1424" y="-15" relative="1" as="geometry">
            <Array as="points">
              <mxPoint x="905" y="1050" />
              <mxPoint x="906" y="1050" />
            </Array>
            <mxPoint x="-15" y="-15" as="offset" />
          </mxGeometry>
        </mxCell>
        <mxCell id="eL0ILeFF7xP9Uzbyy_IR-76" value="&lt;span style=&quot;font-size: 10px;&quot;&gt;operation send result final?&lt;/span&gt;" style="html=1;whiteSpace=wrap;aspect=fixed;shape=isoRectangle;" vertex="1" parent="WIyWlLk6GJQsqaUBKTNV-1">
          <mxGeometry x="838.34" y="930" width="133.33" height="80" as="geometry" />
        </mxCell>
        <mxCell id="eL0ILeFF7xP9Uzbyy_IR-79" value="altinn.&lt;br&gt;notification.&lt;br&gt;email.&lt;br&gt;sending.&lt;br&gt;accepted" style="rounded=1;whiteSpace=wrap;html=1;" vertex="1" parent="WIyWlLk6GJQsqaUBKTNV-1">
          <mxGeometry x="1260" y="925" width="120" height="90" as="geometry" />
        </mxCell>
        <mxCell id="eL0ILeFF7xP9Uzbyy_IR-82" style="edgeStyle=orthogonalEdgeStyle;rounded=0;orthogonalLoop=1;jettySize=auto;html=1;entryX=0;entryY=0.5;entryDx=0;entryDy=0;" edge="1" parent="WIyWlLk6GJQsqaUBKTNV-1" source="eL0ILeFF7xP9Uzbyy_IR-80" target="eL0ILeFF7xP9Uzbyy_IR-79">
          <mxGeometry relative="1" as="geometry" />
        </mxCell>
        <mxCell id="eL0ILeFF7xP9Uzbyy_IR-80" value="&lt;font style=&quot;font-size: 10px;&quot;&gt;Generate send operation result&lt;/font&gt;" style="rounded=0;whiteSpace=wrap;html=1;fillColor=#d5e8d4;strokeColor=#82b366;" vertex="1" parent="WIyWlLk6GJQsqaUBKTNV-1">
          <mxGeometry x="1050" y="940" width="120" height="60" as="geometry" />
        </mxCell>
        <mxCell id="eL0ILeFF7xP9Uzbyy_IR-87" style="edgeStyle=orthogonalEdgeStyle;rounded=0;orthogonalLoop=1;jettySize=auto;html=1;entryX=0.5;entryY=0;entryDx=0;entryDy=0;entryPerimeter=0;" edge="1" parent="WIyWlLk6GJQsqaUBKTNV-1" source="eL0ILeFF7xP9Uzbyy_IR-83" target="eL0ILeFF7xP9Uzbyy_IR-86">
          <mxGeometry relative="1" as="geometry" />
        </mxCell>
        <mxCell id="eL0ILeFF7xP9Uzbyy_IR-83" value="altinn.&lt;br&gt;notification.&lt;br&gt;email.&lt;br&gt;sending.&lt;br&gt;accepted.&lt;br&gt;retry" style="rounded=1;whiteSpace=wrap;html=1;" vertex="1" parent="WIyWlLk6GJQsqaUBKTNV-1">
          <mxGeometry x="845.0000000000001" y="1079" width="120" height="90" as="geometry" />
        </mxCell>
        <mxCell id="eL0ILeFF7xP9Uzbyy_IR-86" value="No further consumer implemented" style="points=[[0.145,0.145,0],[0.5,0,0],[0.855,0.145,0],[1,0.5,0],[0.855,0.855,0],[0.5,1,0],[0.145,0.855,0],[0,0.5,0]];shape=mxgraph.bpmn.event;html=1;verticalLabelPosition=bottom;labelBackgroundColor=#ffffff;verticalAlign=top;align=center;perimeter=ellipsePerimeter;outlineConnect=0;aspect=fixed;outline=end;symbol=cancel;" vertex="1" parent="WIyWlLk6GJQsqaUBKTNV-1">
          <mxGeometry x="880.6700000000001" y="1220" width="50" height="50" as="geometry" />
        </mxCell>
      </root>
    </mxGraphModel>
  </diagram>
</mxfile>
